# xmcd CD database file
# Copyright (C) 1995-1998 Ti Kan
#
# Track frame offsets:
#	150
#	16193
#	32585
#	49135
#	65183
#	82853
#	97730
#	116040
#	132970
#	146070
#
# Disc length: 2175 seconds
#
# Revision: 1
# Processed by: cddbd v1.4b41PL1 Copyright (c) Steve Scherf et al.
# Submitted via: CDex 1.30
#
DISCID=80087d0a
DTITLE=Jim Bond - Unity
DYEAR=1993
DGENRE=Native American
TTITLE0=Unity
TTITLE1=Let the Colors Fly
TTITLE2=Memory
TTITLE3=Makes Me Proud
TTITLE4=Like a Script in a Play
TTITLE5=Run 'Em Down the Mountain
TTITLE6=Filtered Ways
TTITLE7=Beneath The Rainbow
TTITLE8=Spirit Sings Along
TTITLE9=One Day at a Time
EXTD=\nYEAR: 1993  ID3G:  64
EXTT0=
EXTT1=
EXTT2=
EXTT3=
EXTT4=
EXTT5=
EXTT6=
EXTT7=
EXTT8=
EXTT9=
PLAYORDER=
